# xmcd
#
# Track frame offsets: 
#        150
#        11217
#        21316
#        34027
#        45481
#        58181
#        72460
#        80874
#        92134
#        104198
#        117706
#        127723
#        142446
#        157492
#        171736
#        185897
#        200429
#        211802
#        222915
#        234976
#
# Disc length: 3278 seconds
#
# Revision: 1
# Processed by: cddbd v1.5.2PL0 Copyright (c) Steve Scherf et al.
# Submitted via: ExactAudioCopyFreeDBPlugin 1.0
#
DISCID=480ccc14
DTITLE=Various Artist - Burlesque:  Absolutely Essential 3 CD Collect
DTITLE=ion [Big 3]
DYEAR=2013
DGENRE=Burlesque
TTITLE0=Screamin' Jay Hawkins - I Put a Spell on You
TTITLE1=Barney Kessel - Honey Rock
TTITLE2=Prado Perez and His Orchestra - Mambo No. 5
TTITLE3=The Creed Taylor Orchestra - St. James Infirmary
TTITLE4=Roosevelt Sykes - Satellite Baby
TTITLE5=Sam Butera - Street Scene
TTITLE6=Anthony Ray and His Orchestra - Peter Gunn Theme
TTITLE7=Dave Bartholomew - The Monkey
TTITLE8=Sil Austin - Slow Walk
TTITLE9=Sam "The Man" and His Cat Men Taylor - Harlem Nocturne
TTITLE10=Papa Lightfoot - Wine, Women, Whiskey
TTITLE11=Clarence Garlow - The New Bon-Ton Roulay
TTITLE12=Buddy Johnson and His Orchestra - Dr. Jive Jives
TTITLE13=Dinah Washington - Long John Blues
TTITLE14=Dizzy Gillespie - Manteca
TTITLE15=Big Joe Turner - My Gal's a Jockey
TTITLE16=Hal Singer Sextette - Beef Stew
TTITLE17=Lynn Hope Quintet - More Bounce to the Ounce
TTITLE18=Stick McGhee  and His Buddies - One Monkey Don't Stop No Show
TTITLE19=Sugar Boy Crawford and His Cane Cutters - Jock-O-Mo
EXTD=
EXTT0=
EXTT1=
EXTT2=
EXTT3=
EXTT4=
EXTT5=
EXTT6=
EXTT7=
EXTT8=
EXTT9=
EXTT10=
EXTT11=
EXTT12=
EXTT13=
EXTT14=
EXTT15=
EXTT16=
EXTT17=
EXTT18=
EXTT19=
PLAYORDER=
